<svg id="Capa_1" enable-background="new 0 0 512 512" height="512" viewBox="0 0 512 512" width="512" xmlns="http://www.w3.org/2000/svg"><g><g><g><circle cx="256" cy="256" fill="#80b6ff" r="246"/><circle cx="256" cy="256" fill="#dfedff" r="206"/><path d="m181.834 216.778h-52.296v78.444h52.296l74.768 52.296v-183.036z" fill="#a0e5a5"/></g></g><g><path d="m302.819 4.273c-5.431-.999-10.647 2.585-11.651 8.016s2.585 10.647 8.016 11.651c111.725 20.654 192.816 118.249 192.816 232.06 0 130.131-105.869 236-236 236s-236-105.869-236-236c0-113.811 81.091-211.406 192.817-232.06 5.431-1.004 9.02-6.221 8.016-11.651-1.004-5.431-6.219-9.017-11.651-8.016-121.209 22.407-209.182 128.273-209.182 251.727 0 68.38 26.628 132.667 74.981 181.019 48.352 48.352 112.639 74.981 181.019 74.981s132.667-26.629 181.019-74.981c48.353-48.352 74.981-112.639 74.981-181.019 0-123.454-87.973-229.32-209.181-251.727z"/><circle cx="256" cy="10" r="10"/><path d="m40 256c0 119.103 96.897 216 216 216s216-96.897 216-216-96.898-216-216-216-216 96.898-216 216zm412 0c0 108.075-87.925 196-196 196s-196-87.925-196-196 87.925-196 196-196 196 87.925 196 196z"/><path d="m250.871 156.288-72.186 50.49h-49.146c-5.523 0-10 4.477-10 10v78.444c0 5.523 4.477 10 10 10h49.146l72.186 50.49c1.712 1.198 3.718 1.806 5.732 1.806 1.58 0 3.166-.374 4.619-1.131 3.307-1.723 5.38-5.141 5.38-8.869v-183.036c0-3.728-2.074-7.146-5.38-8.869-3.307-1.723-7.298-1.463-10.351.675zm-79.037 128.934h-32.296v-58.444h32.296zm74.768 43.098-54.768-38.307v-68.027l54.768-38.307z"/><path d="m372.462 256.39c0 24-9.372 46.59-26.391 63.608-3.905 3.905-3.905 10.237 0 14.143 1.953 1.953 4.512 2.929 7.071 2.929s5.119-.976 7.071-2.929c20.796-20.796 32.249-48.409 32.249-77.751 0-29.343-11.453-56.955-32.249-77.751-3.905-3.905-10.237-3.905-14.143 0-3.905 3.905-3.905 10.237 0 14.143 17.019 17.017 26.392 39.608 26.392 63.608z"/><path d="m332.462 256.39c0 13.326-5.208 25.877-14.664 35.342-3.903 3.907-3.901 10.239.006 14.142 1.953 1.951 4.51 2.926 7.068 2.926 2.561 0 5.122-.978 7.074-2.932 13.229-13.242 20.516-30.813 20.516-49.478 0-18.677-7.287-36.25-20.518-49.481-3.905-3.905-10.237-3.905-14.143 0-3.905 3.905-3.905 10.237 0 14.143 9.454 9.453 14.661 22.004 14.661 35.338z"/><path d="m289.53 277.601c1.953 1.953 4.512 2.929 7.072 2.929 2.559 0 5.118-.976 7.071-2.928 5.667-5.667 8.789-13.2 8.789-21.211 0-8.027-3.125-15.563-8.799-21.221-3.911-3.9-10.242-3.891-14.142.02s-3.891 10.243.02 14.142c1.884 1.878 2.921 4.385 2.921 7.059 0 2.668-1.04 5.179-2.931 7.068-3.905 3.904-3.906 10.236-.001 14.142z"/></g></g></svg>