<svg id="Capa_1" enable-background="new 0 0 512 512" height="512" viewBox="0 0 512 512" width="512" xmlns="http://www.w3.org/2000/svg"><g><g><g><circle cx="256" cy="256" fill="#80b6ff" r="246"/><circle cx="256" cy="256" fill="#dfedff" r="206"/><path d="m195.108 216.778h-52.297v78.444h52.297l74.768 52.296v-183.036z" fill="#ff7d97"/></g></g><g><path d="m302.819 4.273c-5.431-.999-10.647 2.585-11.651 8.016s2.585 10.647 8.016 11.651c111.725 20.654 192.816 118.249 192.816 232.06 0 130.131-105.869 236-236 236s-236-105.869-236-236c0-113.811 81.091-211.406 192.817-232.06 5.431-1.004 9.02-6.221 8.016-11.651-1.004-5.431-6.221-9.017-11.651-8.016-121.209 22.407-209.182 128.273-209.182 251.727 0 68.38 26.628 132.667 74.981 181.019 48.352 48.352 112.639 74.981 181.019 74.981s132.667-26.629 181.019-74.981c48.353-48.352 74.981-112.639 74.981-181.019 0-123.454-87.973-229.32-209.181-251.727z"/><circle cx="256" cy="10" r="10"/><path d="m40 256c0 119.103 96.897 216 216 216s216-96.897 216-216-96.898-216-216-216-216 96.898-216 216zm412 0c0 108.075-87.925 196-196 196s-196-87.925-196-196 87.925-196 196-196 196 87.925 196 196z"/><path d="m142.811 206.778c-5.523 0-10 4.477-10 10v78.444c0 5.523 4.477 10 10 10h49.146l72.186 50.49c1.712 1.198 3.718 1.806 5.732 1.806 1.58 0 3.165-.374 4.619-1.131 3.307-1.723 5.38-5.141 5.38-8.869v-183.036c0-3.728-2.074-7.146-5.38-8.869s-7.297-1.462-10.351.675l-72.186 50.49zm42.297 78.444h-32.296v-58.444h32.296zm74.767 43.098-54.768-38.307v-68.027l54.768-38.307z"/><path d="m302.804 292.728c1.953 1.953 4.512 2.929 7.071 2.929s5.119-.977 7.071-2.929l22.586-22.585 22.585 22.585c1.953 1.953 4.512 2.929 7.071 2.929s5.119-.977 7.071-2.929c3.905-3.905 3.905-10.237 0-14.143l-22.585-22.585 22.585-22.585c3.905-3.905 3.905-10.237 0-14.142-3.906-3.904-10.237-3.904-14.143 0l-22.585 22.585-22.586-22.585c-3.905-3.905-10.237-3.904-14.142 0-3.905 3.905-3.905 10.237 0 14.142l22.587 22.585-22.585 22.585c-3.906 3.905-3.906 10.237-.001 14.143z"/></g></g></svg>