<svg height="512pt" viewBox="0 -1 512 512" width="512pt" xmlns="http://www.w3.org/2000/svg"><path d="m196.746094 179.003906v219.21875h119.5v-219.21875h66.855468l-126.605468-166.605468-126.601563 166.605468zm0 0" fill="#96d1f3"/><path d="m504.285156 298.707031h-74.511718v129.519531h-347.546876v-129.519531h-74.511718l-.210938 171.898438c12.535156 12.550781 19.558594 19.582031 32.09375 32.132812h432.804688c12.535156-12.554687 19.558594-19.582031 32.09375-32.132812zm0 0" fill="#96d1f3"/><g fill="#3ca6e6"><path d="m256.496094 12.398438-126.601563 166.605468h30.003907l111.601562-146.867187zm0 0"/><path d="m196.746094 179.003906h30.003906v219.21875h-30.003906zm0 0"/><path d="m37.71875 298.707031h-30.003906l-.210938 171.898438c12.535156 12.550781 19.558594 19.582031 32.09375 32.132812h30.003906c-12.535156-12.554687-19.554687-19.582031-32.09375-32.132812zm0 0"/></g><path d="m277.003906 473.734375h-15.003906v-15.003906h15.003906zm-25.003906 0h-15.003906v-15.003906h15.003906zm0 0" fill="#fff"/><path d="m189.25 405.722656h134.5v-94.003906h-15.003906v79h-104.492188v-219.21875h-59.238281l70.878906-93.273438-11.941406-9.078124-89.183594 117.351562h74.480469zm0 0"/><path d="m256.5 24.796875 111.476562 146.703125h-59.230468v120.214844h15.003906v-105.214844h74.46875l-141.71875-186.5-40.445312 53.226562 11.941406 9.074219zm0 0"/><path d="m511.777344 291.207031h-89.503906v129.519531h-332.546876v-61.5h-15.003906v76.5h362.550782v-129.515624h59.519531l.195312 161.292968-27.695312 27.730469h-48.269531v15.003906h54.488281l36.488281-36.53125zm0 0"/><path d="m15.011719 467.503906.195312-161.292968h59.515625v33.015624h15.003906v-48.019531h-89.503906l-.222656 182.5 36.488281 36.53125h364.53125v-15.003906h-358.3125zm0 0"/></svg>