<svg height="511pt" viewBox="1 -31 511.999 511" width="511pt" xmlns="http://www.w3.org/2000/svg"><path d="m473.6875 223.695312h-.007812c-1.070313-119.308593-98.117188-215.695312-217.679688-215.695312-106.9375 0-195.859375 77.105469-214.210938 178.753906l29.007813-41.285156 35.445313 50.445312c13.847656-70.0625 75.628906-122.898437 149.757812-122.898437 83.652344 0 151.589844 67.28125 152.65625 150.679687h-23.816406l56.363281 80.214844 56.359375-80.214844zm0 0" fill="#e2fc85"/><path d="m270.902344 8.515625c-4.925782-.332031-9.894532-.515625-14.902344-.515625-106.933594 0-195.859375 77.105469-214.210938 178.753906l29.007813-41.285156 8.429687 12c27.117188-82.238281 101.914063-142.804688 191.675782-148.953125zm0 0" fill="#6ad34d"/><path d="m441.203125 303.914062-35.445313-50.449218c-13.847656 70.066406-75.628906 122.898437-149.757812 122.898437-83.652344 0-151.589844-67.277343-152.65625-150.675781h23.816406l-56.363281-80.21875-56.359375 80.21875h23.886719c1.066406 119.308594 98.117187 215.695312 217.675781 215.695312 106.9375 0 195.859375-77.105468 214.214844-178.753906zm0 0" fill="#e2fc85"/><path d="m68.316406 225.6875h-23.886718l41.363281-58.875-14.996094-21.34375-56.363281 80.21875h23.886718c1.070313 119.308594 98.117188 215.695312 217.679688 215.695312 5.074219 0 10.105469-.175781 15.09375-.515624-112.621094-7.617188-201.753906-100.871094-202.777344-215.179688zm0 0" fill="#6ad34d"/><path d="m275.996094 48.363281h-14.996094v-14.996093h14.996094zm-24.996094 0h-14.996094v-14.996093h14.996094zm0 0" fill="#fff"/><path d="m256 15.496094c114.863281 0 209.152344 93.429687 210.179688 208.265625l.078124 7.640625c9.484376-.261719 5.664063-.207032 16.875-.207032l-41.929687 59.675782-41.929687-59.675782h16.976562l-.097656-7.597656c-.539063-42.34375-17.441406-82.066406-47.585938-111.851562-30.171875-29.808594-70.148437-46.226563-112.566406-46.226563-62.90625 0-120.25 37.070313-146.09375 94.445313l13.671875 6.160156c23.429687-52.003906 75.40625-85.609375 132.421875-85.609375 76.484375 0 139.933594 60.191406 144.859375 135.679687h-30.453125l70.796875 100.761719 70.796875-100.761719h-31.007812c-2.351563-56.925781-25.773438-110.089843-66.4375-150.414062-42.453126-42.097656-98.765626-65.28125-158.554688-65.28125-75.011719 0-144.859375 37.183594-186.847656 99.464844l12.4375 8.382812c39.191406-58.140625 104.394531-92.851562 174.410156-92.851562zm0 0"/><path d="m256 433.886719c-114.867188 0-209.152344-93.429688-210.183594-208.265625l-.074218-7.433594h-16.875l41.929687-59.675781 41.929687 59.675781h-16.976562l.097656 7.597656c.539063 42.34375 17.4375 82.066406 47.585938 111.851563 30.171875 29.808593 70.148437 46.226562 112.566406 46.226562 62.902344 0 120.25-37.070312 146.09375-94.445312l-13.671875-6.160157c-23.429687 52.003907-75.40625 85.609376-132.421875 85.609376-76.484375 0-139.9375-60.191407-144.863281-135.679688h30.457031l-70.796875-100.761719-70.796875 100.757813h31.007812c2.347657 56.929687 25.773438 110.09375 66.4375 150.417968 42.453126 42.09375 98.761719 65.28125 158.554688 65.28125 75.011719 0 144.859375-37.183593 186.84375-99.464843l-12.433594-8.382813c-39.191406 58.136719-104.390625 92.851563-174.410156 92.851563zm0 0"/></svg>