<svg height="512pt" viewBox="-23 0 512 512" width="512pt" xmlns="http://www.w3.org/2000/svg"><path d="m157.121094 432.957031c-18.503906 18.503907-28.878906 28.878907-47.378906 47.382813v24.160156h247.296874v-24.164062l-47.382812-47.378907zm0 0" fill="#f8e868"/><path d="m356.648438 32.605469v-25.105469h-246.519532v25.105469h-102.628906v145.511719l57.234375 57.234374 45.398437.007813 89.183594 89.175781-.058594 74.75h68.261719l-.058593-74.75 89.1875-89.183594h45.398437l57.230469-57.234374v-145.511719zm-246.519532 159.902343h-27.648437l-32.136719-32.140624v-84.917969h59.785156zm306.304688-32.140624-32.136719 32.140624h-27.648437v-117.058593h59.785156zm0 0" fill="#f8e868"/><path d="m234.1875 71.976562 14.792969 45.527344h47.871093c.253907.773438.246094.746094.496094 1.519532l-38.730468 28.136718 14.792968 45.527344c-.65625.480469-.632812.460938-1.292968.941406l-38.726563-28.136718-38.730469 28.136718c-.65625-.480468-.632812-.460937-1.292968-.941406l14.792968-45.527344-38.726562-28.136718c.25-.773438.242187-.746094.492187-1.519532h47.871094l14.792969-45.527344zm0 0" fill="#d69660"/><path d="m178.089844 399.285156h106.550781v33.671875h-106.550781zm0 0" fill="#d69660"/><path d="m187.121094 432.957031h-30c-18.503906 18.503907-28.878906 28.878907-47.378906 47.382813v24.160156h30v-24.160156c18.5-18.503906 28.875-28.878906 47.378906-47.382813zm0 0" fill="#e0c938"/><path d="m140.128906 235.359375-45.398437-.007813-57.230469-57.234374v-145.511719h-30v145.511719l57.230469 57.234374 45.398437.007813 89.1875 89.175781-.058594 74.75h30l.058594-74.75zm0 0" fill="#e0c938"/><path d="m238.160156 147.160156-38.726562-28.136718c.25-.773438.242187-.746094.492187-1.519532h-30c-.25.773438-.242187.746094-.492187 1.519532l38.726562 28.136718-14.792968 45.527344c.660156.480469.636718.460938 1.292968.941406l37.179688-27.011718zm0 0" fill="#9e5e28"/><path d="m178.089844 399.285156h30v33.671875h-30zm0 0" fill="#9e5e28"/><path d="m253.351562 281.929688h-15v-15h15zm-25 0h-15v-15h15zm0 0" fill="#fff"/><path d="m184.609375 195.601562 10.046875 7.300782 38.734375-28.140625c39.507813 28.707031 32.683594 23.753906 38.738281 28.136719l10.101563-7.34375-14.792969-45.527344 38.726562-28.136719-3.859374-11.886719h-47.875l-14.792969-45.527344h-12.496094l-14.792969 45.527344h-47.871094l-3.863281 11.886719 38.730469 28.136719c-15.0625 46.351562-12.464844 38.261718-14.734375 45.574218zm5.8125-70.597656h32.824219l10.144531-31.21875 10.140625 31.21875h32.828125l-26.558594 19.292969 10.144531 31.21875-26.554687-19.292969-26.558594 19.292969 10.144531-31.21875zm0 0"/><path d="m292.140625 425.457031v-33.671875h-121.550781v33.671875h-16.574219l-51.777344 51.773438v34.769531h262.296875v-34.769531l-51.769531-51.773438zm-106.550781-18.671875h91.550781v18.671875h-91.550781zm163.949218 90.214844h-232.300781v-13.554688l42.988281-42.988281h146.324219l42.984375 42.984375v13.558594zm0 0"/><path d="m79.371094 200.007812h38.257812v-132.058593h-74.785156v95.527343zm-21.527344-117.058593h44.785156v102.058593h-17.042968l-27.742188-27.746093zm0 0"/><path d="m364.148438 25.105469v-25.105469h-261.519532v25.105469h-102.628906v156.117187l61.625 61.625 45.398438.007813 84.789062 84.785156-.03125 44.140625 15 .011719.039062-50.363281-93.582031-93.570313-45.398437-.007813-52.839844-52.84375v-134.902343h102.628906v-25.105469h231.519532v25.105469h102.628906v134.902343l-52.839844 52.84375h-45.398438l-93.582031 93.578126.039063 50.363281 15-.011719-.03125-44.140625 84.789062-84.789063h45.398438l61.625-61.628906v-156.117187zm0 0"/><path d="m423.933594 163.476562v-95.527343h-74.785156v132.058593h38.257812zm-59.785156 21.53125v-102.058593h44.785156v74.3125l-27.742188 27.742187h-17.042968zm0 0"/></svg>