<svg height="512pt" viewBox="-3 0 512 512" width="512pt" xmlns="http://www.w3.org/2000/svg"><path d="m428.453125 13.378906h-27.125v128.453125h-182.492187v-128.453125h-211.335938v491.121094h491.121094v-420.953125zm0 0" fill="#72869e"/><path d="m7.5 13.378906h30v491.121094h-30zm0 0" fill="#536275"/><path d="m104.796875 13.378906h114.039063v128.453125h-98.992188c-5.875-5.875-9.171875-9.171875-15.046875-15.050781zm0 0" fill="#536275"/><path d="m218.835938 7.5h182.492187v134.332031h-182.492187zm0 0" fill="#e5ebf5"/><path d="m218.835938 7.5h30v134.332031h-30zm0 0" fill="#cad8ea"/><path d="m371.328125 37.5v74.332031h-33.929687v-74.332031zm0 0" fill="#72869e"/><path d="m423.445312 454h-340.773437v-206.527344h340.773437zm0 0" fill="#e5ebf5"/><path d="m112.675781 454h-30.003906v-206.527344h30.003906zm0 0" fill="#cad8ea"/><path d="m82.675781 247.476562h340.769531v60h-340.769531zm0 0" fill="#96d1f3"/><path d="m82.675781 247.476562h30v60h-30zm0 0" fill="#3ca6e6"/><path d="m273.058594 286.441406h-15v-15h15zm-25 0h-15v-15h15zm0 0" fill="#fff"/><path d="m190.835938 149.332031v-15h-67.886719l-10.652344-10.65625v-102.796875h78.539063v-15h-93.539063v124.011719l19.441406 19.441406zm0 0"/><path d="m408.828125 0h-197.492187v149.332031h197.492187zm-15 134.332031h-167.492187v-119.332031h167.492187zm0 0"/><path d="m378.828125 30h-48.929687v89.332031h48.929687zm-15 74.332031h-18.929687v-59.332031h18.929687zm0 0"/><path d="m433.757812 8.078125-10.605468 10.605469 67.96875 67.96875v410.347656h-476.121094v-476.121094h62.796875v-15h-77.796875v506.121094h506.121094v-431.5625zm0 0"/><path d="m75.175781 337.476562v124.023438h355.769531v-124.023438h-15v109.023438h-325.769531v-109.023438zm0 0"/><path d="m430.945312 239.976562h-355.769531v75h355.769531zm-15 60h-325.769531v-45h325.769531zm0 0"/><path d="m112.675781 336.5h280.769531v15h-280.769531zm0 0"/><path d="m112.675781 373.429688h280.769531v15h-280.769531zm0 0"/><path d="m112.675781 410.355469h280.769531v15h-280.769531zm0 0"/></svg>