<svg xmlns="http://www.w3.org/2000/svg" viewBox="0 0 64 64"><defs><style>.cls-1{fill:#ebeff1;}.cls-2{fill:#0090e0;}.cls-3{fill:#cfd8dd;}</style></defs><title>Diskette</title><g id="Layer_2" data-name="Layer 2"><g id="Layer_1-2" data-name="Layer 1"><polygon class="cls-1" points="12 0 50 0 58 26 58 64 6 64 4 22 12 0"/><path class="cls-2" d="M44,18H36V2H46V16A2,2,0,0,1,44,18Z"/><path class="cls-2" d="M64,11.66V60a4,4,0,0,1-4,4H56V32a4,4,0,0,0-4-4H12a4,4,0,0,0-4,4V64H4a4,4,0,0,1-4-4V4A4,4,0,0,1,4,0H16V16a4,4,0,0,0,4,4H44a4,4,0,0,0,4-4V0h4.34a4,4,0,0,1,2.83,1.17l7.66,7.66A4,4,0,0,1,64,11.66Z"/><rect class="cls-3" x="20" y="36" width="24" height="4"/><rect class="cls-3" x="18" y="44" width="28" height="4"/><rect class="cls-3" x="22" y="52" width="20" height="4"/></g></g></svg>