<svg height="512pt" viewBox="0 -16 512 511" width="512pt" xmlns="http://www.w3.org/2000/svg"><path d="m272.25 472.503906c128.265625 0 232.25-103.984375 232.25-232.253906 0-128.265625-103.984375-232.25-232.25-232.25-127.605469 0-231.179688 102.871094-232.324219 230.203125-2.5-.054687 9.292969 0-25.492187 0l60.152344 85.613281 60.15625-85.613281h-25.417969c1.136719-89.007813 73.644531-160.8125 162.925781-160.8125v-.039063c89.964844 0 162.898438 72.933594 162.898438 162.898438 0 89.96875-72.933594 162.902344-162.898438 162.902344zm0 0" fill="#d15573"/><path d="m44.433594 238.203125c19.617187 0 24.417968-.015625 25.324218-.023437h.167969c1.109375-122.292969 96.707031-221.996094 217.320313-229.683594-4.960938-.316406-9.957032-.496094-14.996094-.496094-127.59375 0-231.167969 102.859375-232.320312 230.179688.019531 0 .019531 0 0 0v.023437c-.605469-.011719-.375-.019531-.167969-.023437-.90625.003906-5.707031.023437-25.324219.023437l60.152344 85.613281 15-21.347656zm0 0" fill="#c21d44"/><path d="m292.246094 50.574219h-15v-14.996094h15zm-24.996094 0h-15v-14.996094h15zm0 0" fill="#fff"/><path d="m441.777344 70.722656c-45.28125-45.285156-105.488282-70.222656-169.527344-70.222656-63.675781 0-123.644531 24.6875-168.859375 69.519531-43.421875 43.054688-68.390625 99.867188-70.78125 160.675781-8.777344.011719-21.210937.007813-32.609375.007813l74.585938 106.160156 74.589843-106.160156h-32.070312c5.007812-81.074219 73.070312-145.8125 155.144531-145.8125l2.816406-.015625c35.429688.644531 69.75 13.445312 96.917969 36.207031l9.628906-11.496093c-30.582031-25.625-69.421875-39.734376-109.363281-39.734376l-7.5.039063v.160156c-42.335938 1.824219-81.964844 19.074219-112.285156 49.035157-32.078125 31.691406-50.0625 73.964843-50.636719 119.019531l-.101563 7.597656h18.582032l-45.722656 65.066406-45.722657-65.070312c6.660157-.007813 9.40625-.015625 10.453125-.019531.386719.027343.476563.023437 8.109375.167968v-.339844h.097657l-.089844-7.964843c1.488281-122.503907 102.195312-222.042969 224.816406-222.042969 123.925781 0 224.75 100.824219 224.75 224.75 0 121.417969-96.785156 220.660156-217.253906 224.628906v-54.390625c90.496094-3.9375 162.902344-78.789062 162.902344-170.238281 0-40.4375-14.425782-79.648438-40.621094-110.410156l-11.417969 9.722656c23.886719 28.050781 37.039063 63.808594 37.039063 100.691406 0 85.6875-69.710938 155.402344-155.398438 155.402344h-7.5v84.347656h7.5c64.039062 0 124.246094-24.9375 169.527344-70.222656 45.285156-45.28125 70.222656-105.488281 70.222656-169.527344 0-64.042968-24.9375-124.25-70.222656-169.53125zm-401.6875 174.949219c0-.285156-.015625-1.160156.007812 0-.003906 0-.003906 0-.007812 0zm0 0"/></svg>