<svg height="512pt" viewBox="0 0 512 512.00012" width="512pt" xmlns="http://www.w3.org/2000/svg"><path d="m504.492188 255.996094c0 137.238281-111.257813 248.496094-248.496094 248.496094-137.242188 0-248.496094-111.257813-248.496094-248.496094 0-137.242188 111.253906-248.496094 248.496094-248.496094 137.238281 0 248.496094 111.253906 248.496094 248.496094zm0 0" fill="#96d1f3"/><path d="m37.5 255.996094c0-132.203125 103.242188-240.273438 233.496094-248.03125-4.964844-.296875-9.960938-.464844-15-.464844-137.242188 0-248.496094 111.253906-248.496094 248.496094 0 137.238281 111.253906 248.496094 248.496094 248.496094 5.039062 0 10.035156-.167969 15-.464844-130.253906-7.757813-233.496094-115.828125-233.496094-248.03125zm0 0" fill="#3ca6e6"/><path d="m222.976562 106.683594h66.039063v66.042968h-66.039063zm0 0" fill="#dcf0fb"/><path d="m289.015625 367.621094v-157.207032h-103.726563v37.683594h37.683594v132.082032c9.8125 9.8125 15.316406 15.3125 25.128906 25.125h78.601563v-37.683594zm0 0" fill="#dcf0fb"/><g fill="#96d1f3"><path d="m222.976562 106.683594h30v66.042968h-30zm0 0"/><path d="m185.289062 210.414062h30v37.6875h-30zm0 0"/><path d="m252.976562 380.179688v-132.078126h-30v132.078126l25.125 25.128906h30zm0 0"/></g><path d="m275.996094 466.992188h-15v-15h15zm-25 0h-15v-15h15zm0 0" fill="#fff"/><path d="m296.515625 99.183594h-81.042969v81.042968h81.042969zm-15 66.042968h-51.042969v-51.042968h51.042969zm0 0"/><path d="m244.996094 412.808594h89.207031v-52.6875h-37.6875v-74.695313h-15v89.695313h37.6875v22.6875h-67.996094l-20.730469-20.734375v-136.472657h-37.6875v-22.6875h88.726563v39.511719h15v-54.511719h-118.726563v52.683594h37.6875v127.6875zm0 0"/><path d="m342.480469 47.203125-5.742188 13.855469c52.070313 21.570312 92.625 62.125 114.191407 114.191406l13.859374-5.738281c-23.101562-55.773438-66.539062-99.207031-122.308593-122.308594zm0 0"/><path d="m437.011719 74.980469c-48.351563-48.351563-112.636719-74.980469-181.015625-74.980469s-132.664063 26.628906-181.015625 74.980469c-48.351563 48.351562-74.980469 112.636719-74.980469 181.015625s26.628906 132.664062 74.980469 181.015625c97.816406 97.816406 252.324219 98.757812 351.730469 9.726562l-10.007813-11.171875c-44.226563 39.609375-101.300781 61.425782-160.707031 61.425782-132.886719 0-240.996094-108.109376-240.996094-240.996094 0-132.886719 108.109375-240.996094 240.996094-240.996094 132.886718 0 240.996094 108.109375 240.996094 240.996094 0 59.40625-21.816407 116.480468-61.425782 160.707031l11.171875 10.007813c89.121094-99.507813 87.992188-254.011719-9.726562-351.730469zm0 0"/></svg>